<?xml version="1.0" encoding="UTF-8"?>
<svg xmlns="http://www.w3.org/2000/svg" xmlns:xlink="http://www.w3.org/1999/xlink" width="22.5pt" height="22.5pt" viewBox="0 0 22.5 22.5" version="1.1">
<g id="surface641">
<path style=" stroke:none;fill-rule:nonzero;fill:rgb(100%,100%,100%);fill-opacity:1;" d="M 18.746094 7.175781 C 18.65625 7.230469 16.511719 8.421875 16.511719 11.066406 C 16.613281 14.078125 19.21875 15.136719 19.265625 15.136719 C 19.21875 15.191406 18.871094 16.574219 17.835938 18.023438 C 17.015625 19.273438 16.105469 20.535156 14.722656 20.535156 C 13.40625 20.535156 12.933594 19.699219 11.417969 19.699219 C 9.785156 19.699219 9.324219 20.535156 8.078125 20.535156 C 6.695312 20.535156 5.714844 19.207031 4.851562 17.96875 C 3.726562 16.351562 2.769531 13.808594 2.738281 11.371094 C 2.714844 10.078125 2.960938 8.804688 3.589844 7.726562 C 4.480469 6.21875 6.066406 5.195312 7.796875 5.164062 C 9.121094 5.117188 10.304688 6.074219 11.113281 6.074219 C 11.890625 6.074219 13.339844 5.164062 14.980469 5.164062 C 15.6875 5.164062 17.578125 5.375 18.746094 7.175781 Z M 11 4.90625 C 10.765625 3.722656 11.417969 2.542969 12.023438 1.789062 C 12.800781 0.878906 14.023438 0.261719 15.082031 0.261719 C 15.148438 1.441406 14.722656 2.601562 13.957031 3.441406 C 13.273438 4.355469 12.089844 5.039062 11 4.90625 Z M 11 4.90625 "/>
</g>
</svg>
