<svg width="56" height="56" viewBox="0 0 56 56" fill="none" xmlns="http://www.w3.org/2000/svg">
<rect x="0.5" y="0.5" width="55" height="55" rx="11.5" stroke="#E9EAEC"/>
<path d="M37.3744 23.5039C37.2653 23.5652 34.6672 24.8584 34.6672 27.7258C34.7897 30.9959 37.9459 32.1427 38 32.1427C37.9459 32.2039 37.5235 33.7049 36.2724 35.2783C35.2795 36.6336 34.1775 38 32.504 38C30.9121 38 30.3407 37.0967 28.504 37.0967C26.5315 37.0967 25.9734 38 24.4631 38C22.7897 38 21.606 36.5603 20.559 35.2178C19.1987 33.4606 18.0425 30.703 18.0017 28.0553C17.9742 26.6522 18.2741 25.273 19.0354 24.1016C20.11 22.4661 22.0284 21.356 24.1233 21.3193C25.7285 21.2708 27.157 22.3078 28.1366 22.3078C29.0754 22.3078 30.8305 21.3193 32.8163 21.3193C33.6735 21.3201 35.9592 21.5517 37.3744 23.5039ZM28.0009 21.0392C27.7151 19.7579 28.504 18.4766 29.2387 17.6593C30.1774 16.6709 31.6601 16 32.9388 16C33.0204 17.2813 32.5031 18.5379 31.5785 19.4531C30.7489 20.4415 29.3203 21.1856 28.0009 21.0392Z" fill="#111827"/>
</svg>
