<svg width="17" height="17" viewBox="0 0 17 17" fill="none" xmlns="http://www.w3.org/2000/svg">
<path d="M4.99375 2.125H12.0063C12.1052 2.125 12.2028 2.14804 12.2914 2.1923C12.3799 2.23656 12.4569 2.30083 12.5163 2.38L14.2375 4.675V14.2375C14.2375 14.4066 14.1703 14.5687 14.0508 14.6883C13.9312 14.8078 13.7691 14.875 13.6 14.875H3.4C3.23093 14.875 3.06877 14.8078 2.94922 14.6883C2.82967 14.5687 2.7625 14.4066 2.7625 14.2375V4.675L4.48375 2.38C4.54313 2.30083 4.62013 2.23656 4.70865 2.1923C4.79717 2.14804 4.89478 2.125 4.99375 2.125ZM12.6438 4.675L11.6875 3.4H5.3125L4.35625 4.675H12.6438ZM6.5875 7.225H5.3125V8.5C5.3125 9.34538 5.64833 10.1561 6.2461 10.7539C6.84387 11.3517 7.65462 11.6875 8.5 11.6875C9.34538 11.6875 10.1561 11.3517 10.7539 10.7539C11.3517 10.1561 11.6875 9.34538 11.6875 8.5V7.225H10.4125V8.5C10.4125 9.00723 10.211 9.49368 9.85234 9.85234C9.49368 10.211 9.00723 10.4125 8.5 10.4125C7.99277 10.4125 7.50632 10.211 7.14766 9.85234C6.789 9.49368 6.5875 9.00723 6.5875 8.5V7.225Z" fill="#D4ED6D"/>
</svg>
