<svg width="16" height="16" viewBox="0 0 16 16" fill="none" xmlns="http://www.w3.org/2000/svg">
<path d="M11 13.3998H4.99997C4.14991 13.4003 3.32708 13.1 2.67719 12.5521C2.02729 12.0041 1.59226 11.2439 1.44912 10.406C1.30598 9.56805 1.46397 8.70651 1.89511 7.97389C2.32626 7.24128 3.00274 6.68487 3.80477 6.40318C3.7776 5.83538 3.86598 5.26797 4.06455 4.73532C4.26312 4.20268 4.56775 3.71589 4.95998 3.30443C5.35221 2.89298 5.82389 2.56544 6.34644 2.34164C6.86898 2.11784 7.43152 2.00244 7.99997 2.00244C8.56843 2.00244 9.13096 2.11784 9.65351 2.34164C10.1761 2.56544 10.6477 2.89298 11.04 3.30443C11.4322 3.71589 11.7368 4.20268 11.9354 4.73532C12.134 5.26797 12.2223 5.83538 12.1952 6.40318C12.9972 6.68487 13.6737 7.24128 14.1048 7.97389C14.536 8.70651 14.694 9.56805 14.5508 10.406C14.4077 11.2439 13.9727 12.0041 13.3228 12.5521C12.6729 13.1 11.85 13.4003 11 13.3998ZM11 6.19978C11.0001 5.79959 10.9202 5.4034 10.7649 5.03456C10.6096 4.66572 10.3821 4.33168 10.0958 4.05211C9.80941 3.77253 9.47001 3.55307 9.09756 3.40666C8.72511 3.26024 8.32713 3.18982 7.92705 3.19955C7.52697 3.20928 7.13288 3.29895 6.76799 3.4633C6.40309 3.62764 6.07477 3.86334 5.80235 4.1565C5.52992 4.44966 5.31891 4.79436 5.18173 5.17032C5.04455 5.54627 4.98397 5.94587 5.00357 6.34558L5.04557 7.23838L4.20317 7.53478C3.66948 7.72353 3.21962 8.09476 2.93303 8.58294C2.64644 9.07112 2.54154 9.64486 2.63685 10.2029C2.73216 10.7609 3.02155 11.2673 3.45393 11.6326C3.88632 11.998 4.43389 12.1989 4.99997 12.1998H11C11.4418 12.1996 11.875 12.0775 12.2518 11.847C12.6287 11.6164 12.9346 11.2862 13.1358 10.8929C13.337 10.4996 13.4258 10.0584 13.3923 9.61783C13.3588 9.1773 13.2043 8.75456 12.946 8.39619C12.6876 8.03781 12.3353 7.75772 11.9279 7.58675C11.5205 7.41579 11.0739 7.3606 10.6371 7.42725C10.2004 7.49391 9.79048 7.67983 9.45264 7.96453C9.1148 8.24922 8.86209 8.62165 8.72237 9.04078L7.58357 8.66098C7.82287 7.94421 8.28155 7.32086 8.89467 6.87916C9.5078 6.43746 10.2443 6.19979 11 6.19978Z" fill="#EEFFA9"/>
</svg>
