<svg width="154" height="61" viewBox="0 0 154 61" fill="none" xmlns="http://www.w3.org/2000/svg">
<path d="M131.623 60.792C119.237 60.792 109.784 51.1761 109.784 39.4415C109.784 27.7883 119.318 18.1724 131.623 18.1724C144.091 18.1724 153.544 27.8698 153.544 39.4415C153.544 51.1761 144.01 60.792 131.623 60.792ZM131.623 49.9537C137.572 49.9537 141.973 45.2273 141.973 39.5229C141.973 33.8186 137.572 29.0921 131.623 29.0921C125.674 29.0921 121.355 33.8186 121.355 39.5229C121.355 45.2273 125.674 49.9537 131.623 49.9537Z" fill="#073228"/>
<path d="M109.343 59.7326H83.5916C76.8279 59.7326 73.4868 55.9026 73.4053 51.5021C73.3238 47.7535 74.7906 45.0643 78.2947 42.7826L97.3635 30.07C97.5265 29.9885 97.6895 29.7441 97.6895 29.5811C97.6895 29.1736 97.3635 29.1736 97.119 29.1736H74.7091V19.3948H99.5638C106.327 19.3948 109.75 23.2248 109.75 27.6253C109.832 31.3739 108.365 34.0631 104.861 36.3448L85.7918 49.0574C85.5474 49.2203 85.4659 49.3833 85.4659 49.7093C85.4659 49.9538 85.6288 49.9537 85.9548 49.9537H109.343V59.7326Z" fill="#073228"/>
<path d="M51.5142 60.792C39.1276 60.792 29.6747 51.1761 29.6747 39.4415C29.6747 27.7883 39.2091 18.1724 51.5142 18.1724C63.9823 18.1724 73.4352 27.8698 73.4352 39.4415C73.4352 51.1761 63.9008 60.792 51.5142 60.792ZM51.5142 49.9537C57.463 49.9537 61.8635 45.2273 61.8635 39.5229C61.8635 33.8186 57.463 29.0921 51.5142 29.0921C45.5654 29.0921 41.2464 33.8186 41.2464 39.5229C41.2464 45.2273 45.5654 49.9537 51.5142 49.9537Z" fill="#073228"/>
<path d="M19.0077 59.7326H7.43605V29.1736H0.264877V19.3948H7.43605V17.276C7.43605 7.57863 13.2219 0 25.038 0C27.7272 0 30.4979 0.488942 32.5352 1.38534V12.0606C30.6609 10.9197 28.2162 10.3493 26.0974 10.3493C21.6969 10.3493 19.0077 12.5496 19.0077 17.113V19.3948H31.8832V29.1736H19.0077V59.7326Z" fill="#073228"/>
</svg>
