<svg width="154" height="61" viewBox="0 0 154 61" fill="none" xmlns="http://www.w3.org/2000/svg">
<path d="M131.719 60.792C119.332 60.792 109.879 51.1761 109.879 39.4415C109.879 27.7883 119.414 18.1724 131.719 18.1724C144.187 18.1724 153.64 27.8698 153.64 39.4415C153.64 51.1761 144.105 60.792 131.719 60.792ZM131.719 49.9537C137.668 49.9537 142.068 45.2273 142.068 39.5229C142.068 33.8186 137.668 29.0921 131.719 29.0921C125.77 29.0921 121.451 33.8186 121.451 39.5229C121.451 45.2273 125.77 49.9537 131.719 49.9537Z" fill="#073228" fill-opacity="0.07"/>
<path d="M109.438 59.7326H83.687C76.9233 59.7326 73.5822 55.9026 73.5007 51.5021C73.4192 47.7535 74.886 45.0643 78.3901 42.7826L97.4589 30.07C97.6219 29.9885 97.7849 29.7441 97.7849 29.5811C97.7849 29.1736 97.4589 29.1736 97.2144 29.1736H74.8045V19.3948H99.6592C106.423 19.3948 109.845 23.2248 109.845 27.6253C109.927 31.3739 108.46 34.0631 104.956 36.3448L85.8872 49.0574C85.6428 49.2203 85.5613 49.3833 85.5613 49.7093C85.5613 49.9538 85.7243 49.9537 86.0502 49.9537H109.438V59.7326Z" fill="#073228" fill-opacity="0.07"/>
<path d="M51.6096 60.792C39.223 60.792 29.7701 51.1761 29.7701 39.4415C29.7701 27.7883 39.3045 18.1724 51.6096 18.1724C64.0777 18.1724 73.5306 27.8698 73.5306 39.4415C73.5306 51.1761 63.9962 60.792 51.6096 60.792ZM51.6096 49.9537C57.5584 49.9537 61.9589 45.2273 61.9589 39.5229C61.9589 33.8186 57.5584 29.0921 51.6096 29.0921C45.6608 29.0921 41.3418 33.8186 41.3418 39.5229C41.3418 45.2273 45.6608 49.9537 51.6096 49.9537Z" fill="#073228" fill-opacity="0.07"/>
<path d="M19.1031 59.7326H7.53147V29.1736H0.360291V19.3948H7.53147V17.276C7.53147 7.57863 13.3173 0 25.1334 0C27.8226 0 30.5933 0.488942 32.6306 1.38534V12.0606C30.7563 10.9197 28.3116 10.3493 26.1928 10.3493C21.7923 10.3493 19.1031 12.5496 19.1031 17.113V19.3948H31.9787V29.1736H19.1031V59.7326Z" fill="#073228" fill-opacity="0.07"/>
</svg>
