<svg width="19" height="18" viewBox="0 0 19 18" fill="none" xmlns="http://www.w3.org/2000/svg">
<g id="Google&#226;&#128;&#147;logo 2">
<g clip-path="url(#clip0_6015_4133)">
<path id="Vector" d="M9.17091 3.56165C10.5236 3.56165 11.7349 4.01915 12.6902 4.91165L15.3078 2.3429C13.7181 0.891646 11.6432 -0.000854492 9.17091 -0.000854492C5.58663 -0.000854492 2.48763 2.01665 0.978256 4.95665L4.02758 7.2779C4.74978 5.14415 6.77884 3.56165 9.17091 3.56165Z" fill="#EA4335"/>
<path id="Vector_2" d="M17.9582 9.2054C17.9582 8.61665 17.9009 8.04665 17.813 7.49915H9.17711V10.8816H14.1217C13.9001 11.9916 13.2582 12.9366 12.2952 13.5741L15.249 15.8241C16.9724 14.2566 17.9582 11.9391 17.9582 9.2054Z" fill="#4285F4"/>
<path id="Vector_3" d="M4.02575 10.7191C3.84234 10.1753 3.73534 9.59782 3.73534 8.99782C3.73534 8.39782 3.83852 7.82032 4.02575 7.27657L0.976436 4.95532C0.35358 6.17032 0.00202942 7.54282 0.00202942 8.99782C0.00202942 10.4528 0.35358 11.8253 0.980257 13.0403L4.02575 10.7191Z" fill="#FBBC05"/>
<path id="Vector_4" d="M9.17474 17.9969C11.6509 17.9969 13.7334 17.1981 15.2466 15.8181L12.2928 13.5681C11.4713 14.1119 10.4128 14.4306 9.17474 14.4306C6.78266 14.4306 4.7536 12.8481 4.02758 10.7144L0.978256 13.0356C2.49145 15.9794 5.59045 17.9969 9.17474 17.9969Z" fill="#34A853"/>
</g>
</g>
<defs>
<clipPath id="clip0_6015_4133">
<rect width="18.3418" height="18" rx="6" fill="white"/>
</clipPath>
</defs>
</svg>
