<svg width="56" height="56" viewBox="0 0 56 56" fill="none" xmlns="http://www.w3.org/2000/svg">
<rect x="0.5" y="0.5" width="55" height="55" rx="11.5" stroke="#E9EAEC"/>
<path d="M37.6259 28.2137C37.6259 27.4224 37.5604 26.8449 37.4186 26.246H28.1974V29.8179H33.61C33.501 30.7055 32.9117 32.0424 31.6021 32.9406L31.5838 33.0602L34.4993 35.2737L34.7013 35.2935C36.5565 33.6144 37.6259 31.144 37.6259 28.2137Z" fill="#4285F4"/>
<path d="M28.1968 37.625C30.8485 37.625 33.0747 36.7694 34.7007 35.2936L31.6015 32.9408C30.7722 33.5076 29.659 33.9033 28.1968 33.9033C25.5996 33.9033 23.3952 32.2243 22.6095 29.9036L22.4943 29.9131L19.4626 32.2125L19.423 32.3205C21.038 35.4647 24.3555 37.625 28.1968 37.625Z" fill="#34A853"/>
<path d="M22.6101 29.9036C22.4027 29.3047 22.2827 28.663 22.2827 28C22.2827 27.3369 22.4027 26.6952 22.5991 26.0964L22.5937 25.9688L19.524 23.6326L19.4236 23.6794C18.7579 24.9841 18.376 26.4493 18.376 28C18.376 29.5507 18.7579 31.0158 19.4236 32.3205L22.6101 29.9036Z" fill="#FBBC05"/>
<path d="M28.1968 22.0966C30.041 22.0966 31.2851 22.8773 31.9944 23.5297L34.7662 20.8775C33.0639 19.3268 30.8486 18.375 28.1968 18.375C24.3555 18.375 21.038 20.5353 19.423 23.6794L22.5986 26.0964C23.3953 23.7757 25.5996 22.0966 28.1968 22.0966Z" fill="#EB4335"/>
</svg>
