<svg width="24" height="24" viewBox="0 0 24 24" fill="none" xmlns="http://www.w3.org/2000/svg">
<path d="M9.3 3.9001V5.7001H4.8V18.3001H19.2V10.2001H21V19.2001C21 19.4388 20.9052 19.6677 20.7364 19.8365C20.5676 20.0053 20.3387 20.1001 20.1 20.1001H3.9C3.66131 20.1001 3.43239 20.0053 3.2636 19.8365C3.09482 19.6677 3 19.4388 3 19.2001V4.8001C3 4.5614 3.09482 4.33248 3.2636 4.1637C3.43239 3.99492 3.66131 3.9001 3.9 3.9001H9.3ZM15.6 5.7001V2.1001L21.9 7.5001H13.8C13.3226 7.5001 12.8648 7.68974 12.5272 8.02731C12.1896 8.36487 12 8.82271 12 9.3001V14.7001H10.2V9.3001C10.2 8.34532 10.5793 7.42964 11.2544 6.75451C11.9295 6.07938 12.8452 5.7001 13.8 5.7001H15.6Z" fill="#0E121B"/>
</svg>
