<svg width="34" height="34" viewBox="0 0 34 34" fill="none" xmlns="http://www.w3.org/2000/svg">
<path d="M9.9874 4.25H24.0124C24.2103 4.25 24.4056 4.29608 24.5826 4.38461C24.7596 4.47313 24.9136 4.60165 25.0324 4.76L28.4749 9.35V28.475C28.4749 28.8132 28.3406 29.1375 28.1015 29.3766C27.8624 29.6157 27.5381 29.75 27.1999 29.75H6.7999C6.46175 29.75 6.13745 29.6157 5.89834 29.3766C5.65923 29.1375 5.5249 28.8132 5.5249 28.475V9.35L8.9674 4.76C9.08616 4.60165 9.24016 4.47313 9.41721 4.38461C9.59425 4.29608 9.78946 4.25 9.9874 4.25ZM25.2874 9.35L23.3749 6.8H10.6249L8.7124 9.35H25.2874ZM13.1749 14.45H10.6249V17C10.6249 18.6908 11.2966 20.3123 12.4921 21.5078C13.6876 22.7034 15.3091 23.375 16.9999 23.375C18.6907 23.375 20.3122 22.7034 21.5077 21.5078C22.7033 20.3123 23.3749 18.6908 23.3749 17V14.45H20.8249V17C20.8249 18.0145 20.4219 18.9874 19.7046 19.7047C18.9873 20.422 18.0144 20.825 16.9999 20.825C15.9854 20.825 15.0125 20.422 14.2952 19.7047C13.5779 18.9874 13.1749 18.0145 13.1749 17V14.45Z" fill="#055F19"/>
</svg>
