<svg width="13" height="13" viewBox="0 0 13 13" fill="none" xmlns="http://www.w3.org/2000/svg">
<path d="M3.8188 1.625H9.1813C9.25698 1.625 9.33162 1.64262 9.39932 1.67647C9.46701 1.71031 9.52589 1.75945 9.5713 1.82L10.8875 3.575V10.8875C10.8875 11.0168 10.8362 11.1408 10.7448 11.2322C10.6533 11.3236 10.5293 11.375 10.4 11.375H2.60005C2.47076 11.375 2.34676 11.3236 2.25533 11.2322C2.16391 11.1408 2.11255 11.0168 2.11255 10.8875V3.575L3.4288 1.82C3.47421 1.75945 3.53309 1.71031 3.60078 1.67647C3.66847 1.64262 3.74312 1.625 3.8188 1.625ZM9.6688 3.575L8.93755 2.6H4.06255L3.3313 3.575H9.6688ZM5.03755 5.525H4.06255V6.5C4.06255 7.14647 4.31936 7.76645 4.77648 8.22357C5.2336 8.68069 5.85358 8.9375 6.50005 8.9375C7.14651 8.9375 7.7665 8.68069 8.22362 8.22357C8.68074 7.76645 8.93755 7.14647 8.93755 6.5V5.525H7.96255V6.5C7.96255 6.88788 7.80847 7.25987 7.53419 7.53414C7.25992 7.80842 6.88793 7.9625 6.50005 7.9625C6.11217 7.9625 5.74018 7.80842 5.46591 7.53414C5.19163 7.25987 5.03755 6.88788 5.03755 6.5V5.525Z" fill="#D4ED6D"/>
</svg>
