<svg width="198" height="188" viewBox="0 0 198 188" fill="none" xmlns="http://www.w3.org/2000/svg">
<g clip-path="url(#clip0_1_11835)">
<path d="M137.73 3.67041L147.406 19.1743L156.314 44.5507L146.639 29.0468L137.73 3.67041Z" fill="#C0D664"/>
<path d="M156.314 44.892C156.197 44.892 156.083 44.8331 156.018 44.7288L146.342 29.2249C146.329 29.2038 146.318 29.1814 146.31 29.1579L137.402 3.78136C137.344 3.61677 137.422 3.43591 137.582 3.36176C137.743 3.28741 137.935 3.34383 138.027 3.49224L147.703 18.9962C147.716 19.0174 147.727 19.0398 147.735 19.0633L156.643 44.4397C156.701 44.6043 156.623 44.7852 156.463 44.8593C156.415 44.8814 156.364 44.892 156.314 44.892ZM146.955 28.9006L154.949 41.71L147.089 19.3205L139.096 6.51111L146.955 28.9006Z" fill="#210133"/>
<path d="M26.2269 127.537L35.9019 143.041L10.023 131.538L0.347656 116.034L26.2269 127.537Z" fill="#C0D664"/>
<path d="M35.9019 143.381C35.8535 143.381 35.8047 143.371 35.7584 143.351L9.87956 131.848C9.81617 131.82 9.76281 131.774 9.72644 131.715L0.0511197 116.212C-0.028573 116.084 -0.013966 115.92 0.0870908 115.808C0.188247 115.696 0.352203 115.661 0.491318 115.723L26.3706 127.226C26.434 127.254 26.4874 127.301 26.5237 127.359L36.1987 142.862C36.2783 142.99 36.2637 143.154 36.1627 143.266C36.0951 143.341 35.9994 143.382 35.9019 143.382V143.381ZM10.264 131.27L35.0144 142.271L25.9862 127.804L1.23548 116.803L10.264 131.27Z" fill="#210133"/>
<path d="M176.022 32.9175L185.697 48.421L177.396 76.0987L167.721 60.5948L176.022 32.9175Z" fill="#C0D664"/>
<path d="M177.396 76.44C177.276 76.44 177.163 76.3791 177.099 76.277L167.424 60.773C167.373 60.6908 167.359 60.5912 167.387 60.4988L175.688 32.8215C175.726 32.6921 175.839 32.5973 175.976 32.5796C176.111 32.5619 176.246 32.6247 176.318 32.7397L185.993 48.2433C186.044 48.3256 186.058 48.4252 186.03 48.5176L177.729 76.1953C177.69 76.3247 177.578 76.4195 177.441 76.4371C177.426 76.4392 177.411 76.44 177.396 76.44ZM168.098 60.5461L177.283 75.2653L185.319 48.4701L176.134 33.7512L168.098 60.5461Z" fill="#210133"/>
<path d="M57.0693 151.1L66.7446 166.603L36.2184 170.688L26.5435 155.184L57.0693 151.1Z" fill="#C0D664"/>
<path d="M36.2184 171.029C36.0985 171.029 35.9856 170.968 35.9219 170.866L26.247 155.362C26.1857 155.264 26.179 155.142 26.2294 155.038C26.2798 154.934 26.3802 154.862 26.4966 154.846L57.0224 150.762C57.1592 150.743 57.294 150.806 57.366 150.921L67.0413 166.425C67.1026 166.523 67.1093 166.645 67.0589 166.749C67.0086 166.853 66.9081 166.925 66.7917 166.941L36.2655 171.026C36.2497 171.028 36.234 171.029 36.2184 171.029ZM27.1181 155.452L36.3966 170.32L66.1701 166.336L56.8913 151.468L27.1181 155.452Z" fill="#210133"/>
<path d="M187.977 78.8003L197.652 94.3038L174.784 115.489L165.109 99.9859L187.977 78.8003Z" fill="#C0D664"/>
<path d="M174.784 115.83C174.769 115.83 174.753 115.829 174.738 115.827C174.634 115.814 174.542 115.755 174.487 115.667L164.812 100.164C164.727 100.026 164.751 99.8484 164.87 99.7377L187.738 78.5522C187.815 78.4814 187.919 78.4485 188.023 78.4619C188.127 78.4756 188.219 78.5343 188.274 78.622L197.949 94.1257C198.035 94.2631 198.011 94.4409 197.891 94.5516L175.023 115.737C174.958 115.797 174.872 115.83 174.784 115.83ZM165.553 100.044L174.857 114.953L197.208 94.2458L187.904 79.3368L165.553 100.044Z" fill="#210133"/>
<path d="M73.8392 172.155L83.5141 187.659L66.7447 166.603L57.0693 151.1L73.8392 172.155Z" fill="#C0D664"/>
<path d="M83.5146 188C83.4109 188 83.3086 187.955 83.2402 187.869L66.4707 166.813C66.4625 166.803 66.455 166.793 66.4481 166.782L56.7729 151.278C56.6766 151.124 56.7198 150.923 56.8714 150.82C57.0229 150.717 57.2301 150.747 57.3436 150.89L74.1133 171.945C74.1215 171.956 74.129 171.966 74.1359 171.977L83.8109 187.481C83.9072 187.636 83.864 187.837 83.7124 187.94C83.6521 187.981 83.5831 188 83.5146 188ZM67.0311 166.409L80.0333 182.734L73.5531 172.35L60.5509 156.025L67.0312 166.409L67.0311 166.409Z" fill="#210133"/>
<path d="M99.3415 153.772L109.017 169.276L83.5143 187.659L73.8394 172.155L99.3415 153.772Z" fill="#C0D664"/>
<path d="M83.5144 188C83.4921 188 83.4697 187.998 83.4474 187.994C83.3519 187.976 83.2686 187.919 83.2178 187.837L73.5429 172.333C73.4486 172.182 73.4879 171.986 73.6336 171.881L99.1359 153.498C99.2144 153.441 99.3134 153.42 99.4088 153.438C99.5043 153.456 99.5877 153.513 99.6385 153.595L109.314 169.098C109.408 169.249 109.369 169.446 109.223 169.551L83.7205 187.934C83.6604 187.977 83.5879 188 83.5144 188ZM74.3028 172.245L83.6134 187.165L108.554 169.187L99.2427 154.267L74.3028 172.245Z" fill="#210133"/>
<path d="M165.109 99.9858L174.784 115.489L179.46 142.26L169.784 126.756L165.109 99.9858Z" fill="#C0D664"/>
<path d="M179.46 142.601C179.341 142.601 179.228 142.541 179.163 142.438L169.487 126.934C169.465 126.897 169.449 126.856 169.441 126.813L164.766 100.043C164.738 99.882 164.83 99.724 164.986 99.6664C165.142 99.6088 165.318 99.6681 165.405 99.8076L175.08 115.311C175.103 115.348 175.119 115.389 175.126 115.432L179.802 142.202C179.83 142.363 179.738 142.521 179.582 142.579C179.542 142.594 179.5 142.601 179.46 142.601ZM170.116 126.634L178.811 140.567L174.452 115.611L165.757 101.678L170.116 126.634Z" fill="#210133"/>
<path d="M169.784 126.756L179.459 142.26L149.293 150.214L139.618 134.711L169.784 126.756Z" fill="#C0D664"/>
<path d="M149.294 150.555C149.175 150.555 149.061 150.495 148.997 150.392L139.322 134.888C139.264 134.797 139.255 134.684 139.295 134.584C139.336 134.484 139.422 134.409 139.528 134.381L169.694 126.426C169.843 126.387 170 126.449 170.081 126.578L179.756 142.082C179.813 142.173 179.823 142.286 179.782 142.386C179.742 142.486 179.656 142.561 179.55 142.589L149.384 150.544C149.354 150.551 149.324 150.555 149.294 150.555ZM140.158 134.921L149.455 149.819L178.92 142.049L169.623 127.151L140.158 134.921Z" fill="#210133"/>
<path d="M139.619 134.71L149.294 150.214L136.909 177.059L127.234 161.556L139.619 134.71Z" fill="#C0D664"/>
<path d="M136.909 177.401C136.788 177.401 136.676 177.339 136.612 177.238L126.937 161.734C126.877 161.637 126.869 161.518 126.917 161.415L139.301 134.57C139.354 134.455 139.468 134.378 139.597 134.37C139.727 134.361 139.848 134.425 139.915 134.532L149.59 150.036C149.65 150.133 149.658 150.252 149.61 150.355L137.226 177.2C137.173 177.315 137.059 177.392 136.93 177.4C136.923 177.4 136.916 177.401 136.909 177.401ZM127.626 161.532L136.863 176.332L148.901 150.238L139.664 135.438L127.626 161.532Z" fill="#210133"/>
<path d="M137.73 3.67005L146.639 29.0465L176.021 32.9173L167.721 60.5946L187.977 78.7999L165.108 99.9855L169.784 126.756L139.618 134.71L127.233 161.555L99.3413 153.772L73.839 172.155L57.0691 151.1L26.5433 155.184L26.2268 127.537L0.347656 116.033L16.5932 90.5685L3.61248 67.1301L31.2451 51.9457L35.2582 24.0079L65.5116 23.9148L85.2491 0.34082L108.537 15.3814L137.73 3.67005Z" fill="white"/>
<path d="M145.769 60.7321L146.151 60.8405C147.856 61.373 149.252 62.4928 150.024 64.1108L150.17 64.4413C151.67 68.1117 149.562 72.8569 145.358 75.1933L144.944 75.4124L76.7483 109.705C74.5623 110.804 72.2683 111.047 70.3243 110.553L69.941 110.444C68.3869 109.958 67.0852 108.979 66.2807 107.572L66.1265 107.285L50.6328 76.5224C48.8631 73.0062 50.6476 68.2041 54.7293 65.6312L55.1311 65.3899C57.4489 64.0603 59.9513 63.7244 62.0535 64.2495L62.4682 64.3655C64.0194 64.8499 65.3189 65.8236 66.126 67.2344L66.281 67.5229L78.5426 91.875L78.6546 92.097L78.8777 91.9848L139.34 61.582C141.539 60.4773 143.831 60.2389 145.769 60.7321Z" fill="#B4C27A" stroke="#210133" stroke-width="0.5"/>
<path d="M73.8396 172.496C73.7361 172.496 73.6337 172.451 73.5652 172.365L56.9185 151.464L26.5907 155.522C26.4919 155.535 26.392 155.506 26.3165 155.443C26.2409 155.379 26.197 155.286 26.1959 155.188L25.8818 127.758L0.204249 116.344C0.11293 116.304 0.0438696 116.226 0.0148543 116.132C-0.0141611 116.038 -0.000249615 115.936 0.052912 115.853L16.1907 90.5566L3.3069 67.2931C3.21608 67.1291 3.2765 66.9241 3.44254 66.8328L30.9248 51.7311L34.9139 23.9605C34.9381 23.7926 35.0844 23.6676 35.2573 23.667L65.3469 23.5744L84.9805 0.124713C85.0935 -0.0102495 85.2921 -0.0397755 85.4406 0.056306L108.575 14.9979L137.599 3.35465C137.687 3.31918 137.787 3.32084 137.874 3.35972C137.961 3.3983 138.028 3.47061 138.059 3.55929L146.898 28.7368L176.068 32.5797C176.168 32.593 176.258 32.6486 176.313 32.732C176.368 32.8154 176.384 32.9184 176.355 33.0139L168.116 60.4874L188.212 78.549C188.283 78.613 188.324 78.7032 188.325 78.7979C188.326 78.8926 188.286 78.9834 188.216 79.0484L165.483 100.109L170.127 126.698C170.157 126.872 170.048 127.04 169.874 127.085L139.868 134.998L127.551 161.696C127.48 161.85 127.304 161.93 127.139 161.884L99.4105 154.146L74.0454 172.43C73.9834 172.475 73.9112 172.496 73.8397 172.496L73.8396 172.496ZM57.0695 150.759C57.1758 150.759 57.2772 150.806 57.3436 150.89L73.9055 171.684L99.1357 153.498C99.2224 153.435 99.3334 153.416 99.4369 153.444L127.041 161.147L139.302 134.57C139.345 134.477 139.428 134.408 139.528 134.381L169.388 126.507L164.766 100.043C164.746 99.931 164.785 99.8163 164.87 99.7379L187.466 78.8041L167.486 60.8464C167.388 60.7585 167.35 60.6236 167.387 60.4988L175.573 33.2028L146.593 29.3848C146.462 29.3677 146.353 29.2799 146.31 29.1579L137.522 4.12272L108.669 15.6973C108.562 15.74 108.441 15.7284 108.346 15.6665L85.3194 0.794847L65.7806 24.1314C65.7147 24.2101 65.6166 24.2558 65.5129 24.2561L35.5607 24.3482L31.5897 51.9935C31.5746 52.099 31.51 52.1914 31.4153 52.2435L4.08207 67.2634L16.8989 90.4059C16.9587 90.5139 16.9546 90.6453 16.8882 90.7495L0.853616 115.884L26.3707 127.226C26.4937 127.281 26.5734 127.4 26.5749 127.533L26.887 154.794L57.0225 150.762C57.0382 150.76 57.0539 150.759 57.0695 150.759Z" fill="#210133"/>
<path d="M127.234 161.556L136.909 177.06L109.017 169.276L99.3418 153.772L127.234 161.556Z" fill="#C0D664"/>
<path d="M136.909 177.401C136.877 177.401 136.845 177.397 136.814 177.388L108.922 169.604C108.838 169.581 108.766 169.527 108.72 169.454L99.0448 153.951C98.97 153.831 98.9778 153.678 99.0644 153.566C99.1512 153.454 99.299 153.406 99.4367 153.445L127.329 161.228C127.413 161.251 127.485 161.305 127.53 161.378L137.206 176.882C137.28 177.001 137.273 177.154 137.186 177.266C137.119 177.352 137.016 177.401 136.909 177.401H136.909ZM109.243 168.984L136.147 176.493L127.008 161.847L100.103 154.34L109.243 168.984Z" fill="#210133"/>
</g>
<defs>
<clipPath id="clip0_1_11835">
<rect width="198" height="188" fill="white"/>
</clipPath>
</defs>
</svg>
