<svg width="24" height="24" viewBox="0 0 24 24" fill="none" xmlns="http://www.w3.org/2000/svg">
<path d="M6.94371 6.5713C8.37807 5.42206 10.1619 4.79717 11.9999 4.8001C13.9124 4.8001 15.6701 5.4625 17.0561 6.5713L18.3638 5.2636L19.6364 6.5362L18.3287 7.8439C19.2806 9.03563 19.8767 10.4719 20.0484 11.9875C20.2201 13.5031 19.9604 15.0363 19.2992 16.4108C18.6379 17.7852 17.602 18.9451 16.3107 19.7568C15.0194 20.5686 13.5252 20.9992 11.9999 20.9992C10.4746 20.9992 8.98039 20.5686 7.68908 19.7568C6.39777 18.9451 5.36189 17.7852 4.70066 16.4108C4.03942 15.0363 3.7797 13.5031 3.95138 11.9875C4.12306 10.4719 4.71917 9.03563 5.67111 7.8439L4.36341 6.5371L5.63601 5.2645L6.94371 6.5722V6.5713ZM11.9999 19.2001C12.8272 19.2001 13.6465 19.0371 14.4108 18.7205C15.1752 18.4039 15.8697 17.9399 16.4547 17.3549C17.0397 16.7699 17.5037 16.0754 17.8203 15.311C18.137 14.5467 18.2999 13.7274 18.2999 12.9001C18.2999 12.0728 18.137 11.2535 17.8203 10.4892C17.5037 9.72484 17.0397 9.03033 16.4547 8.44533C15.8697 7.86032 15.1752 7.39626 14.4108 7.07966C13.6465 6.76305 12.8272 6.6001 11.9999 6.6001C10.329 6.6001 8.72661 7.26385 7.54513 8.44533C6.36366 9.6268 5.69991 11.2292 5.69991 12.9001C5.69991 14.571 6.36366 16.1734 7.54513 17.3549C8.72661 18.5364 10.329 19.2001 11.9999 19.2001ZM12.8999 12.0001H15.5999L11.0999 17.8501V13.8001H8.39991L12.8999 7.9456V12.0001ZM8.39991 2.1001H15.5999V3.9001H8.39991V2.1001Z" fill="#055F19"/>
</svg>
