<svg width="24" height="24" viewBox="0 0 24 24" fill="none" xmlns="http://www.w3.org/2000/svg">
<path d="M6.94383 6.57081C8.3782 5.42157 10.1621 4.79668 12 4.79961C13.9125 4.79961 15.6702 5.46201 17.0562 6.57081L18.3639 5.26311L19.6365 6.53571L18.3288 7.84341C19.2808 9.03514 19.8769 10.4714 20.0486 11.987C20.2202 13.5026 19.9605 15.0358 19.2993 16.4103C18.638 17.7847 17.6022 18.9446 16.3109 19.7563C15.0195 20.5681 13.5253 20.9987 12 20.9987C10.4748 20.9987 8.98051 20.5681 7.6892 19.7563C6.39789 18.9446 5.36201 17.7847 4.70078 16.4103C4.03954 15.0358 3.77982 13.5026 3.9515 11.987C4.12319 10.4714 4.7193 9.03514 5.67123 7.84341L4.36353 6.53661L5.63613 5.26401L6.94383 6.57171V6.57081ZM12 19.1996C12.8274 19.1996 13.6466 19.0367 14.4109 18.7201C15.1753 18.4034 15.8698 17.9394 16.4548 17.3544C17.0398 16.7694 17.5039 16.0749 17.8205 15.3105C18.1371 14.5462 18.3 13.7269 18.3 12.8996C18.3 12.0723 18.1371 11.2531 17.8205 10.4887C17.5039 9.72435 17.0398 9.02985 16.4548 8.44484C15.8698 7.85983 15.1753 7.39577 14.4109 7.07917C13.6466 6.76256 12.8274 6.59961 12 6.59961C10.3292 6.59961 8.72674 7.26336 7.54526 8.44484C6.36378 9.62632 5.70003 11.2287 5.70003 12.8996C5.70003 14.5705 6.36378 16.1729 7.54526 17.3544C8.72674 18.5359 10.3292 19.1996 12 19.1996ZM12.9 11.9996H15.6L11.1 17.8496V13.7996H8.40003L12.9 7.94511V11.9996ZM8.40003 2.09961H15.6V3.89961H8.40003V2.09961Z" fill="#055F19"/>
</svg>
